<?xml version="1.0" encoding="UTF-8"?>
<svg id="Ebene_1" xmlns="http://www.w3.org/2000/svg" version="1.1" viewBox="0 0 1195.55 254.36">
  <!-- Generator: Adobe Illustrator 30.3.0, SVG Export Plug-In . SVG Version: 2.1.3 Build 182)  -->
  <path d="M913.24,179.35l-120.28.12c-16.63.02-28.34-13.05-28.57-29.04l-.74-50.85c-.21-14.65,10.27-29.48,26.31-29.47l124.7.09c15.21.01,25.39,14.64,25.54,28.35l.53,50.99c.16,15.25-10.45,29.8-27.48,29.82ZM912.16,160.58c7.14,0,9.55-5.71,9.5-11.1l-.44-50.58c-.04-4.56-3.01-10.09-8.6-10.09h-121.61c-5.94.01-8.38,6.15-8.31,10.82l.79,52.2c.07,4.79,4.47,8.76,9.43,8.76l119.24-.02Z"/>
  <path d="M719.37,160.51c7.89,0,12.63-6.82,12.99-12.93.35-6.01-4.6-13.47-12.12-13.48l-120.51-.18,15.67-18.7,91.48-.19c7.85-.02,13.92-4.49,14.62-12.14.6-6.56-4.57-13.98-12.73-14l-70.8-.18,16.08-18.83,55.88.02c15.8.29,28.14,11.31,30.35,26.69,1.16,8.11-.25,15.71-4.65,22.84,13.06,8.03,18.6,22.74,14.62,36.67-4.08,14.26-16.87,23.41-32.44,23.4l-156.91-.07,16.21-18.88,142.26-.06Z"/>
  <path d="M1129.79,149.97c0,11.91-6.47,21.78-15.86,26.52-9.72,4.91-23.29,5.23-31.82-2.77l-87.27-81.94c-3.29-3.09-6.6-4.65-10.9-3.2-2.69.9-6.94,4.38-6.95,8.4l-.07,82.24h-18.98s.06-81.32.06-81.32c0-11.11,6.33-20.69,15.35-25.3,9.56-4.88,22.77-5.27,31.11,2.54l89.43,83.81c2.97,2.79,7.67,2.41,10.69,1.01,3.41-1.58,6.24-5.14,6.24-9.54v-80.27s18.99,0,18.99,0l-.02,79.83Z"/>
  <path d="M270.55,151c-1.24,1.66-1.53,4.92-.87,6.17s3.03,3.17,4.65,3.17l82.53.04,15.38,18.8-96.83.32c-9.56.03-17.72-5.19-21.79-12.36-4.52-7.97-5.1-18.27.58-25.87l46.35-62.09c5.24-7.02,13.93-9.92,22.07-9.68s15.34,4.44,20.76,11.39l76.68,98.33-23.95.24-68.98-88.39c-2.86-3.66-8.89-3.81-11.7-.06l-44.88,60Z"/>
  <path d="M202.35,70.17c10.2-.32,19.08-.31,29.29-.06l-122.55,104.58c-8.1,6.91-19.58,6.84-28.54,2.46s-14.77-13.23-14.77-23.89l-.03-83.33h19s-.03,82.47-.03,82.47c0,3.14,1.66,6.07,3.84,7.55,2.01,1.36,6.4,1.92,8.64,0l105.14-89.79Z"/>
  <polygon points="614.01 88.79 436.03 88.8 436.02 69.9 629.64 69.92 614.01 88.79"/>
  <polygon points="590.8 115.23 575.27 134.04 436.43 133.77 436.41 114.77 465.86 115.08 590.8 115.23"/>
  <polygon points="537.06 179.46 436.44 179.5 436.43 160.58 552.62 160.61 537.06 179.46"/>
  <polygon points="210.58 179.62 168.26 143.49 182.92 130.96 239.24 179.21 210.58 179.62"/>
</svg>